<?xml version="1.0" standalone="no"?>
<!DOCTYPE svg PUBLIC "-//W3C//DTD SVG 20010904//EN"
 "http://www.w3.org/TR/2001/REC-SVG-20010904/DTD/svg10.dtd">
<svg version="1.0" xmlns="http://www.w3.org/2000/svg"
 width="11402.000000pt" height="9932.000000pt" viewBox="0 0 11402.000000 9932.000000"
 preserveAspectRatio="xMidYMid meet">

<g transform="translate(0.000000,9932.000000) scale(0.100000,-0.100000)"
fill="#000000" stroke="none">
<path d="M40165 99293 c22 -54 200 -547 285 -788 1235 -3518 2275 -7803 3104
-12800 850 -5121 1484 -11026 1891 -17615 55 -888 76 -1272 72 -1276 -5 -5
-524 169 -807 271 -3023 1083 -5799 2625 -8235 4574 -1912 1529 -3630 3323
-5098 5324 -1880 2564 -3390 5490 -4517 8755 -54 156 -99 284 -101 286 -6 4
-8020 118 -8024 114 -5 -5 145 -595 220 -863 739 -2643 1935 -5584 3358 -8255
2192 -4116 4883 -7644 8037 -10541 4351 -3994 9479 -6682 15311 -8025 l206
-48 7 -225 c46 -1592 86 -3896 107 -6176 13 -1410 6 -6544 -10 -7770 -44
-3247 -97 -5843 -171 -8265 -250 -8242 -668 -16204 -1285 -24520 -264 -3545
-623 -7785 -858 -10112 -13 -126 -19 -228 -14 -228 5 0 1640 -196 3635 -435
2325 -279 3628 -432 3632 -425 6 10 321 2203 441 3075 1623 11803 2617 23288
2979 34430 60 1864 98 3497 132 5805 17 1130 17 5872 0 6980 -27 1793 -48
2772 -87 4190 -25 883 -80 2531 -89 2663 l-5 67 632 0 c348 0 803 5 1012 11
209 5 810 12 1335 13 525 2 1074 9 1220 15 146 5 382 15 525 21 143 6 275 12
294 15 l33 4 -6 -122 c-14 -267 -65 -1722 -91 -2612 -89 -3036 -121 -5605
-112 -8790 8 -2458 27 -3878 82 -6165 283 -11628 1287 -23859 2976 -36240 216
-1585 501 -3585 512 -3597 5 -4 7269 865 7273 870 0 1 -7 83 -17 182 -139
1346 -423 4565 -619 7000 -939 11719 -1525 23766 -1680 34545 -27 1867 -31
2472 -37 5000 -9 4163 15 6297 117 10490 6 234 13 462 16 507 l6 81 36 7 c102
18 830 190 1232 291 1821 454 3539 991 5181 1620 4238 1622 7895 3808 10909
6523 521 469 1397 1328 1826 1791 894 963 1667 1908 2385 2915 3003 4210 4900
9259 5662 15068 l14 107 -3782 0 -3782 0 -38 -132 c-292 -1035 -812 -2422
-1398 -3728 -372 -830 -856 -1799 -1305 -2610 -1255 -2269 -2741 -4359 -4381
-6160 -581 -638 -1287 -1344 -1921 -1921 -2741 -2494 -5872 -4372 -9330 -5597
-339 -120 -969 -326 -976 -319 -3 3 -1 90 5 194 108 1812 168 2724 261 3978
770 10370 2120 18803 4036 25198 307 1023 680 2149 994 2998 33 89 60 164 60
165 0 2 -1820 4 -4044 4 l-4045 0 -60 -182 c-356 -1086 -917 -3142 -1366
-5011 -1630 -6787 -2906 -14783 -3720 -23307 -160 -1679 -325 -3637 -427
-5076 l-22 -322 -255 -7 c-329 -10 -1801 0 -2126 14 -137 6 -383 18 -545 26
-221 11 -333 12 -445 5 -251 -17 -1276 -24 -1670 -11 -383 12 -848 32 -853 36
-2 2 -21 243 -43 537 -643 8779 -1740 16997 -3245 24303 -706 3426 -1552 6813
-2246 8990 l-73 230 -4049 3 c-3853 2 -4048 1 -4041 -15z"/>
<path d="M36585 87294 c-1211 -57 -2345 -554 -3190 -1399 -764 -764 -1228
-1732 -1347 -2810 -21 -188 -17 -791 5 -975 94 -756 327 -1403 724 -2009 763
-1165 1991 -1936 3378 -2120 419 -55 890 -54 1310 5 887 123 1709 487 2405
1063 146 121 401 370 541 529 470 535 821 1198 999 1887 292 1129 144 2332
-411 3348 -758 1389 -2161 2310 -3749 2461 -161 16 -525 26 -665 20z"/>
<path d="M76322 87290 c-297 -18 -597 -63 -887 -135 -900 -222 -1702 -689
-2341 -1365 -739 -782 -1172 -1766 -1255 -2850 -15 -198 -6 -647 16 -830 92
-761 337 -1429 751 -2050 757 -1138 1981 -1897 3349 -2079 471 -62 1003 -52
1470 29 1333 231 2529 1033 3233 2168 1008 1625 923 3666 -218 5197 -745 1001
-1868 1675 -3109 1865 -301 46 -722 67 -1009 50z"/>
<path d="M12704 72577 l-1511 -3342 111 -78 c741 -518 1797 -1323 2725 -2076
2472 -2008 4869 -4260 6952 -6531 1559 -1701 2978 -3445 4235 -5210 3434
-4818 5599 -9649 6448 -14392 46 -255 74 -427 152 -938 6 -42 32 -29 -281
-136 -1012 -345 -2316 -612 -3605 -739 -778 -76 -1359 -100 -2185 -92 -553 6
-734 12 -1175 42 -4435 302 -8845 2050 -12900 5114 -1649 1245 -3232 2699
-4755 4366 -201 220 -533 592 -626 702 -24 28 -47 52 -52 52 -4 1 -1384 -935
-3068 -2078 -2955 -2007 -3061 -2078 -3089 -2068 -24 9 -32 8 -49 -8 -132
-119 439 -1178 1237 -2295 1219 -1706 2820 -3412 4592 -4894 4449 -3720 9880
-6000 15845 -6650 764 -84 1451 -134 2395 -177 377 -17 1830 -23 2290 -10
2304 66 4636 335 6940 800 107 22 196 38 198 37 11 -12 123 -2038 177 -3211
253 -5527 288 -10706 100 -14860 -227 -5007 -762 -8595 -1594 -10683 -16 -39
-18 -54 -8 -57 15 -6 8172 -1625 8184 -1625 32 0 378 1853 577 3085 694 4285
1136 8876 1291 13380 49 1455 60 2084 60 3755 0 1628 -10 2262 -55 3570 -328
9495 -2003 18114 -4949 25461 -804 2008 -1714 3946 -2689 5734 -964 1769
-1992 3412 -3110 4975 -4125 5764 -9393 10335 -15727 13644 -510 267 -1535
776 -1561 776 -5 0 -689 -1504 -1520 -3343z"/>
<path d="M99458 75761 c-5618 -2731 -10471 -6450 -14438 -11062 -2994 -3481
-5471 -7435 -7476 -11931 -3451 -7742 -5411 -17003 -5779 -27298 -72 -2019
-84 -4299 -35 -6295 138 -5527 694 -11164 1586 -16065 111 -612 298 -1557 310
-1569 3 -3 8164 1614 8191 1624 10 3 8 18 -8 57 -967 2429 -1529 6849 -1679
13213 -44 1884 -44 4526 0 6735 51 2565 156 5306 295 7740 30 526 64 1063 68
1066 1 1 90 -15 197 -37 1645 -332 3428 -580 5065 -703 1115 -85 1915 -111
3105 -103 771 5 946 10 1500 37 6749 335 12882 2685 17830 6831 1950 1634
3722 3578 4934 5412 312 471 493 776 665 1117 197 389 258 583 200 635 -17 16
-25 17 -49 8 -28 -10 -134 61 -3089 2068 -1684 1143 -3064 2079 -3068 2078 -5
0 -28 -24 -52 -52 -539 -634 -1580 -1732 -2321 -2446 -1783 -1718 -3614 -3140
-5553 -4313 -3338 -2020 -6873 -3182 -10407 -3423 -441 -30 -622 -36 -1175
-42 -1000 -10 -1804 36 -2755 158 -1031 132 -2088 361 -2910 631 -165 54 -400
136 -408 143 -4 4 57 406 108 710 926 5492 3634 11126 8018 16685 2630 3334
5895 6626 9492 9571 971 795 2108 1665 2896 2216 l111 78 -1511 3342 c-831
1839 -1516 3343 -1521 3343 -6 0 -157 -72 -337 -159z"/>
<path d="M18495 54359 c-1042 -80 -1986 -460 -2770 -1118 -128 -107 -389 -365
-518 -511 -544 -618 -924 -1402 -1071 -2210 -214 -1179 32 -2374 698 -3384
311 -471 764 -931 1245 -1267 666 -463 1442 -748 2276 -835 199 -21 701 -24
890 -6 932 91 1757 407 2475 948 968 729 1613 1784 1809 2959 70 422 80 926
25 1343 -132 1016 -594 1950 -1324 2682 -796 798 -1818 1278 -2960 1390 -147
15 -631 20 -775 9z"/>
<path d="M95280 54190 c-1424 -80 -2731 -776 -3579 -1904 -388 -517 -678
-1144 -815 -1766 -78 -352 -107 -622 -107 -1005 0 -251 9 -392 37 -605 99
-757 400 -1504 857 -2123 266 -362 627 -725 992 -999 599 -449 1323 -758 2070
-882 307 -52 425 -60 805 -60 380 0 498 8 805 60 846 141 1633 505 2300 1062
116 98 469 451 567 567 1045 1251 1367 2914 857 4437 -299 895 -873 1688
-1634 2260 -721 542 -1588 872 -2490 947 -185 15 -493 20 -665 11z"/>
</g>
</svg>
